<svg width="378" height="61" viewBox="0 0 378 61" fill="none" xmlns="http://www.w3.org/2000/svg">
<rect y="0.347656" width="378" height="60" rx="30" fill="#072546"/>
<path d="M33.48 37.3477V23.3477H38.5C39.2733 23.3477 39.9733 23.461 40.6 23.6877C41.2267 23.901 41.76 24.2077 42.2 24.6077C42.64 25.0077 42.98 25.4943 43.22 26.0677C43.4733 26.6277 43.6 27.261 43.6 27.9677V28.2077C43.6 28.9277 43.48 29.5743 43.24 30.1477C43 30.721 42.6533 31.2143 42.2 31.6277C41.7467 32.0277 41.2067 32.341 40.58 32.5677C39.9533 32.781 39.26 32.8877 38.5 32.8877H36.6V37.3477H33.48ZM36.52 30.4277H38.14C38.4867 30.4277 38.8067 30.3743 39.1 30.2677C39.4067 30.161 39.66 30.0143 39.86 29.8277C40.0733 29.641 40.2333 29.4143 40.34 29.1477C40.4467 28.881 40.5 28.5877 40.5 28.2677V28.0477C40.5 27.7277 40.4467 27.441 40.34 27.1877C40.2333 26.9343 40.08 26.7277 39.88 26.5677C39.68 26.3943 39.44 26.261 39.16 26.1677C38.88 26.0743 38.56 26.0277 38.2 26.0277H36.52V30.4277ZM47.975 37.5677C47.4683 37.5677 47.0017 37.4943 46.575 37.3477C46.1617 37.201 45.795 36.9943 45.475 36.7277C45.1683 36.461 44.9283 36.141 44.755 35.7677C44.595 35.381 44.515 34.961 44.515 34.5077V34.2677C44.515 33.1477 44.9883 32.3077 45.935 31.7477C46.8817 31.1877 48.3483 30.9077 50.335 30.9077H51.115V30.6077C51.115 30.1277 50.9683 29.7477 50.675 29.4677C50.3817 29.1743 49.9417 29.0277 49.355 29.0277H49.255C48.775 29.0277 48.2683 29.1143 47.735 29.2877C47.215 29.4477 46.6817 29.701 46.135 30.0477L45.015 28.0077C45.6417 27.6077 46.3417 27.2943 47.115 27.0677C47.8883 26.841 48.675 26.7277 49.475 26.7277H49.655C50.3217 26.7277 50.915 26.8143 51.435 26.9877C51.955 27.161 52.395 27.421 52.755 27.7677C53.1283 28.1143 53.415 28.5343 53.615 29.0277C53.815 29.521 53.915 30.081 53.915 30.7077V34.9677C53.915 35.3943 53.9483 35.801 54.015 36.1877C54.0817 36.561 54.1683 36.9477 54.275 37.3477H51.495C51.4283 37.1877 51.3683 37.0077 51.315 36.8077C51.275 36.6077 51.2417 36.3943 51.215 36.1677C50.8283 36.621 50.355 36.9677 49.795 37.2077C49.235 37.4477 48.6283 37.5677 47.975 37.5677ZM48.735 35.3077C49.175 35.3077 49.6017 35.2143 50.015 35.0277C50.4283 34.841 50.795 34.5677 51.115 34.2077V32.6477H50.515C49.435 32.6477 48.635 32.7677 48.115 33.0077C47.595 33.2477 47.335 33.6077 47.335 34.0877V34.1877C47.335 34.3477 47.3683 34.501 47.435 34.6477C47.5017 34.781 47.595 34.901 47.715 35.0077C47.835 35.101 47.9817 35.1743 48.155 35.2277C48.3283 35.281 48.5217 35.3077 48.735 35.3077ZM56.4045 37.3477V26.9477H59.3845V30.7277H63.1245V26.9477H66.1045V37.3477H63.1245V33.0277H59.3845V37.3477H56.4045ZM68.6311 37.3477V26.9477H71.6111V30.7277H75.3511V26.9477H78.3311V37.3477H75.3511V33.0277H71.6111V37.3477H68.6311ZM80.8577 37.3477V26.9477H83.8377V37.3477H80.8577ZM82.3177 25.5477C81.8243 25.5477 81.4177 25.4077 81.0977 25.1277C80.791 24.8477 80.6377 24.481 80.6377 24.0277C80.6377 23.5743 80.791 23.2077 81.0977 22.9277C81.4177 22.6343 81.8243 22.4877 82.3177 22.4877C82.8377 22.4877 83.2577 22.6343 83.5777 22.9277C83.8977 23.2077 84.0577 23.5743 84.0577 24.0277C84.0577 24.481 83.8977 24.8477 83.5777 25.1277C83.2577 25.4077 82.8377 25.5477 82.3177 25.5477ZM86.3655 37.3477V26.9477H89.2655V33.0077H89.4255L92.8055 26.9477H96.1255V37.3477H93.2255V30.5077H93.0855L89.2255 37.3477H86.3655ZM87.8055 22.9477H90.1855C90.1855 23.2677 90.2788 23.521 90.4655 23.7077C90.6521 23.8943 90.9121 23.9877 91.2455 23.9877C91.5921 23.9877 91.8521 23.8943 92.0255 23.7077C92.2121 23.521 92.3055 23.2677 92.3055 22.9477H94.6855C94.6855 23.3877 94.6055 23.7877 94.4455 24.1477C94.2855 24.5077 94.0588 24.8143 93.7655 25.0677C93.4721 25.321 93.1121 25.521 92.6855 25.6677C92.2588 25.801 91.7855 25.8677 91.2655 25.8677C90.7321 25.8677 90.2521 25.801 89.8255 25.6677C89.3988 25.521 89.0388 25.321 88.7455 25.0677C88.4521 24.8143 88.2188 24.5077 88.0455 24.1477C87.8855 23.7877 87.8055 23.3877 87.8055 22.9477ZM102.786 39.9077V35.1277H103.746C104.066 34.6477 104.286 33.741 104.406 32.4077C104.54 31.061 104.606 29.241 104.606 26.9477H112.806V35.1277H114.226V39.9077H111.446V37.3477H105.586V39.9077H102.786ZM106.566 35.1277H109.846V29.1477H107.366C107.34 30.761 107.26 32.0677 107.126 33.0677C106.993 34.0543 106.806 34.741 106.566 35.1277ZM120.185 37.5677C119.411 37.5677 118.698 37.441 118.045 37.1877C117.405 36.9343 116.851 36.5877 116.385 36.1477C115.918 35.6943 115.551 35.1543 115.285 34.5277C115.031 33.901 114.905 33.2077 114.905 32.4477V31.8477C114.905 31.0877 115.031 30.3943 115.285 29.7677C115.551 29.141 115.918 28.6077 116.385 28.1677C116.851 27.7143 117.405 27.361 118.045 27.1077C118.698 26.8543 119.411 26.7277 120.185 26.7277H120.385C121.171 26.7277 121.885 26.8543 122.525 27.1077C123.178 27.361 123.738 27.7143 124.205 28.1677C124.671 28.6077 125.031 29.141 125.285 29.7677C125.538 30.3943 125.665 31.0877 125.665 31.8477V32.4477C125.665 33.2077 125.538 33.901 125.285 34.5277C125.031 35.1543 124.671 35.6943 124.205 36.1477C123.738 36.5877 123.178 36.9343 122.525 37.1877C121.885 37.441 121.171 37.5677 120.385 37.5677H120.185ZM120.205 35.3477H120.385C120.718 35.3477 121.018 35.2743 121.285 35.1277C121.565 34.981 121.798 34.781 121.985 34.5277C122.185 34.261 122.331 33.941 122.425 33.5677C122.531 33.1943 122.585 32.781 122.585 32.3277V31.8677C122.585 31.4143 122.531 31.0077 122.425 30.6477C122.331 30.2877 122.185 29.9877 121.985 29.7477C121.785 29.4943 121.551 29.301 121.285 29.1677C121.018 29.021 120.718 28.9477 120.385 28.9477H120.205C119.871 28.9477 119.565 29.021 119.285 29.1677C119.018 29.301 118.791 29.4943 118.605 29.7477C118.418 29.9877 118.271 30.2877 118.165 30.6477C118.058 31.0077 118.005 31.4143 118.005 31.8677V32.3277C118.005 32.781 118.051 33.1943 118.145 33.5677C118.251 33.941 118.398 34.261 118.585 34.5277C118.785 34.781 119.018 34.981 119.285 35.1277C119.565 35.2743 119.871 35.3477 120.205 35.3477ZM131.997 37.5477C131.237 37.5477 130.544 37.421 129.917 37.1677C129.291 36.901 128.751 36.541 128.297 36.0877C127.857 35.6343 127.511 35.0943 127.257 34.4677C127.004 33.8277 126.877 33.141 126.877 32.4077V31.8477C126.877 31.1143 127.004 30.4343 127.257 29.8077C127.524 29.181 127.877 28.6477 128.317 28.2077C128.771 27.7543 129.304 27.401 129.917 27.1477C130.531 26.881 131.197 26.7477 131.917 26.7477H132.077C132.997 26.7477 133.824 26.9477 134.557 27.3477C135.304 27.7343 135.937 28.301 136.457 29.0477L134.357 30.5477C134.051 30.001 133.724 29.6143 133.377 29.3877C133.044 29.1477 132.644 29.0277 132.177 29.0277H132.057C131.737 29.0277 131.444 29.0943 131.177 29.2277C130.924 29.361 130.704 29.5543 130.517 29.8077C130.344 30.0477 130.211 30.3477 130.117 30.7077C130.024 31.0677 129.977 31.4877 129.977 31.9677V32.3277C129.977 32.781 130.024 33.1877 130.117 33.5477C130.224 33.9077 130.371 34.2077 130.557 34.4477C130.757 34.6877 130.984 34.8743 131.237 35.0077C131.504 35.141 131.804 35.2077 132.137 35.2077H132.317C132.744 35.2077 133.131 35.0877 133.477 34.8477C133.837 34.5943 134.157 34.2077 134.437 33.6877L136.517 35.2877C135.997 36.0343 135.377 36.601 134.657 36.9877C133.937 37.361 133.111 37.5477 132.177 37.5477H131.997ZM139.981 37.3477V29.3277H137.241V26.9477H145.701V29.3277H142.961V37.3477H139.981ZM149.202 41.4277C148.868 41.4277 148.522 41.3943 148.162 41.3277C147.802 41.2743 147.468 41.1743 147.162 41.0277V38.5077C147.375 38.6543 147.608 38.7677 147.862 38.8477C148.128 38.9277 148.402 38.9677 148.682 38.9677C149.042 38.9677 149.368 38.8677 149.662 38.6677C149.968 38.4677 150.228 38.1677 150.442 37.7677L146.182 26.9477H149.282L151.922 34.5877H152.062L154.042 26.9477H157.042L153.542 37.9077C153.368 38.4543 153.148 38.941 152.882 39.3677C152.615 39.8077 152.295 40.181 151.922 40.4877C151.562 40.7943 151.155 41.0277 150.702 41.1877C150.262 41.3477 149.762 41.4277 149.202 41.4277ZM158.299 37.3477V26.9477H167.879V37.3477H164.899V29.2477H161.279V37.3477H158.299Z" fill="#F7F6F6"/>
<a href="https://forms.gle/o38LpmTcqBoTKcEa8">
<rect fill="black" fill-opacity="0" y="0.2" width="137.139" height="27.6"/>
</a>
<path d="M343 30.3477H325M343 30.3477L337 24.3477M343 30.3477L337 36.3477" stroke="#F7F6F6" stroke-width="2" stroke-linecap="round" stroke-linejoin="round"/>
</svg>
