<?xml version="1.0" encoding="UTF-8"?>
<!DOCTYPE svg PUBLIC "-//W3C//DTD SVG 1.1//EN" "http://www.w3.org/Graphics/SVG/1.1/DTD/svg11.dtd">
<!-- Creator: CorelDRAW -->
<svg xmlns="http://www.w3.org/2000/svg" xml:space="preserve" width="99.0335mm" height="51.6059mm" version="1.1" style="shape-rendering:geometricPrecision; text-rendering:geometricPrecision; image-rendering:optimizeQuality; fill-rule:evenodd; clip-rule:evenodd"
viewBox="0 0 6150.16 3204.82"
 xmlns:xlink="http://www.w3.org/1999/xlink"
 xmlns:xodm="http://www.corel.com/coreldraw/odm/2003">
 <defs>
  <style type="text/css">
   <![CDATA[
    .fil0 {fill:#141515;fill-rule:nonzero}
   ]]>
  </style>
 </defs>
 <g id="Слой_x0020_1">
  <metadata id="CorelCorpID_0Corel-Layer"/>
  <path class="fil0" d="M1103.29 3204.82c-101.8,-26.41 -187.06,-79.23 -255.78,-158.46 -76.35,-84.51 -114.53,-178.26 -114.53,-281.26l0 -1117.14 -358.86 0 0 1370.67 -374.13 0 0 -3018.63 656.63 0c114.53,0 217.6,48.86 309.23,146.57 91.63,97.72 137.43,206 137.43,324.84l0 736.83 -187.06 301.07 187.06 293.15 0 1402.35zm-362.67 -1826.23l0 -1113.17 -366.49 0 0 1113.17 366.49 0zm1821 1655.89l-641.36 0c-114.52,0 -217.6,-46.22 -309.22,-138.65 -91.63,-92.43 -137.44,-198.07 -137.44,-316.91l0 -2119.39c0,-118.84 45.81,-225.14 137.44,-318.9 91.62,-93.76 194.7,-140.63 309.22,-140.63l641.36 0 0 946.79 -362.67 0 0 -673.45 -358.85 0 0 1113.17 358.85 0 0 261.45 -358.85 0 0 1117.14 358.85 0 0 -681.37 362.67 0 0 950.75zm1420.15 -7.92l-362.67 0 0 -2761.14 -358.85 0 0 2761.14 -366.5 0 0 -3026.56 641.36 0c117.07,0 220.78,46.22 311.14,138.65 90.35,92.44 135.52,199.4 135.52,320.88l0 2567.03zm1420.14 178.26c-99.25,-29.05 -183.24,-85.83 -251.96,-170.34 -68.72,-84.51 -103.07,-179.59 -103.07,-285.23l0 -1101.29 -366.49 0 0 1378.59 -366.49 0 0 -3018.63 366.49 0 0 1370.66 366.49 0 0 -1370.66 355.03 0 0 1200.32 -190.88 301.07 190.88 293.15 0 1402.35zm748.25 -178.26l-366.49 0 0 -3026.56 366.49 0 0 3026.56z"/>
 </g>
</svg>
