<svg width="61" height="24" viewBox="0 0 61 24" fill="none" xmlns="http://www.w3.org/2000/svg">
<path d="M4 4.86H9.64C11.2267 4.86 12.4667 5.24667 13.36 6.02C14.2533 6.79333 14.7 7.86667 14.7 9.24V9.44C14.7 10.3067 14.4867 11.0733 14.06 11.74C13.6333 12.4067 13.04 12.9067 12.28 13.24L15.62 18.86H12L9.32 13.94H7.12V18.86H4V4.86ZM9.18 11.58C9.99333 11.58 10.6 11.3933 11 11.02C11.4 10.6467 11.6 10.1533 11.6 9.54V9.38C11.6 8.76667 11.4 8.29333 11 7.96C10.6 7.62667 10 7.46 9.2 7.46H7.02V11.58H9.18Z" fill="#1F2224"/>
<path d="M21.5525 19.08C20.7392 19.08 19.9925 18.9533 19.3125 18.7C18.6458 18.4467 18.0658 18.0933 17.5725 17.64C17.0925 17.1733 16.7192 16.62 16.4525 15.98C16.1858 15.34 16.0525 14.6333 16.0525 13.86V13.52C16.0525 12.76 16.1858 12.06 16.4525 11.42C16.7325 10.78 17.1125 10.2267 17.5925 9.76C18.0725 9.28 18.6392 8.91333 19.2925 8.66C19.9592 8.39333 20.6792 8.26 21.4525 8.26H21.6325C22.3658 8.26 23.0392 8.38 23.6525 8.62C24.2792 8.86 24.8125 9.19333 25.2525 9.62C25.7058 10.0333 26.0592 10.5333 26.3125 11.12C26.5658 11.6933 26.6925 12.32 26.6925 13V14.48H18.9525C19.0458 15.16 19.3392 15.7 19.8325 16.1C20.3258 16.5 20.9592 16.7 21.7325 16.7H21.8525C22.4792 16.7 23.0525 16.58 23.5725 16.34C24.0925 16.1 24.5125 15.8067 24.8325 15.46L26.2925 17.32C26.0392 17.5733 25.7392 17.8067 25.3925 18.02C25.0592 18.2333 24.6925 18.42 24.2925 18.58C23.8925 18.74 23.4792 18.86 23.0525 18.94C22.6392 19.0333 22.2258 19.08 21.8125 19.08H21.5525ZM23.8725 12.66C23.8325 12.0067 23.5992 11.4733 23.1725 11.06C22.7592 10.6467 22.2192 10.44 21.5525 10.44H21.4925C20.8658 10.44 20.3325 10.64 19.8925 11.04C19.4525 11.4267 19.1658 11.9667 19.0325 12.66H23.8725Z" fill="#1F2224"/>
<path d="M28.8586 8.46H31.2186C31.2986 8.67333 31.3719 8.94667 31.4386 9.28C31.5053 9.6 31.5386 9.87333 31.5386 10.1C32.0586 9.47333 32.6586 9.00667 33.3386 8.7C34.0319 8.39333 34.7253 8.24 35.4186 8.24H35.4786C36.6786 8.24 37.5919 8.59333 38.2186 9.3C38.8586 9.99333 39.1786 10.9733 39.1786 12.24V18.86H36.1986V12.88C36.1986 12.16 36.0453 11.6267 35.7386 11.28C35.4453 10.92 34.9786 10.74 34.3386 10.74H34.2586C33.5386 10.74 32.9519 10.9867 32.4986 11.48C32.0586 11.96 31.8386 12.5867 31.8386 13.36V18.86H28.8586V8.46Z" fill="#1F2224"/>
<path d="M41.7102 4.46H44.6902V12.74H44.9102L48.7102 8.46H51.9502L47.4502 13.24L52.0102 18.86H48.5502L44.8902 14.04H44.6902V18.86H41.7102V4.46Z" fill="#1F2224"/>
<path d="M54.928 7.06C54.4213 7.06 54.008 6.92667 53.688 6.66C53.3813 6.38 53.228 6.00667 53.228 5.54C53.228 5.08667 53.3813 4.72 53.688 4.44C54.008 4.14667 54.4213 4 54.928 4C55.448 4 55.868 4.14667 56.188 4.44C56.5213 4.72 56.688 5.08667 56.688 5.54C56.688 6.00667 56.5213 6.38 56.188 6.66C55.868 6.92667 55.448 7.06 54.928 7.06ZM53.468 8.46H56.448V18.86H53.468V8.46Z" fill="#1F2224"/>
</svg>
