<svg width="123" height="123" viewBox="0 0 123 123" fill="none" xmlns="http://www.w3.org/2000/svg">
<path d="M102.1 7.21033L17.3053 7.21033C15.4321 7.21033 13.9136 8.72887 13.9136 10.6021L13.9136 37.7362C13.9136 39.6094 15.4321 41.128 17.3053 41.128L102.1 41.128C103.973 41.128 105.491 39.6094 105.491 37.7362V10.6021C105.491 8.72887 103.973 7.21033 102.1 7.21033Z" fill="#072546"/>
<path d="M112.275 20.7774H108.883V41.942L63.8064 56.2214C63.0854 56.4391 62.4574 56.8906 62.0214 57.5047C61.5853 58.1189 61.3661 58.8607 61.3983 59.6131V64.8704H54.6147L54.6147 115.747C54.6147 116.646 54.9721 117.509 55.6082 118.145C56.2442 118.781 57.107 119.139 58.0065 119.139H71.5736C72.4731 119.139 73.3358 118.781 73.9719 118.145C74.608 117.509 74.9653 116.646 74.9653 115.747V64.8704H68.1818V62.0891L113.258 47.9115C113.979 47.6938 114.607 47.2423 115.043 46.6282C115.479 46.014 115.699 45.2723 115.667 44.5198V24.1692C115.667 23.2696 115.309 22.4069 114.673 21.7708C114.037 21.1348 113.174 20.7774 112.275 20.7774Z" fill="#03D9A9"/>
</svg>
